<svg width="32" height="38" viewBox="0 0 32 38" fill="none" xmlns="http://www.w3.org/2000/svg">
<g clip-path="url(#clip0_4508_216)">
<path d="M30.9725 18.7228L18.4546 6.00641C17.1029 4.63328 14.899 4.63328 13.5179 6.00641L9.90359 9.70791L5.55465 14.1557L1.0294 18.7228C-0.3223 20.096 -0.3223 22.3348 1.0294 23.7378L5.55465 28.3348L9.90359 32.7527L13.5473 36.4542C14.899 37.8273 17.1029 37.8273 18.4839 36.4542L31.0018 23.7378C32.3535 22.3646 32.3535 20.1258 30.9725 18.7228ZM23.4793 22.484L17.2204 28.8422C16.5445 29.5288 15.4279 29.5288 14.7521 28.8422L14.2525 28.3348L9.90359 23.9169L8.52251 22.484C7.84666 21.7975 7.84666 20.6631 8.52251 19.9766L9.90359 18.5736L14.2525 14.1557L14.7521 13.6482C15.4279 12.9616 16.5445 12.9616 17.2204 13.6482L23.4793 20.0064C24.1552 20.693 24.1846 21.7975 23.4793 22.484Z" fill="white"/>
<path d="M21.568 20.308L16.9252 15.5915C16.4257 15.0841 15.6029 15.0841 15.1034 15.5915L13.7517 16.9647L12.1355 18.6065L10.4606 20.308C9.96105 20.8154 9.96105 21.6512 10.4606 22.1587L12.1355 23.8602L13.7517 25.502L15.1034 26.8751C15.6029 27.3826 16.4257 27.3826 16.9252 26.8751L21.5974 22.1288C22.097 21.6512 22.097 20.8154 21.568 20.308Z" fill="white"/>
<path d="M29.6967 4.30855L26.1802 0.784387C25.8018 0.405204 25.1786 0.405204 24.8003 0.784387L23.7765 1.81041L22.5524 3.03717L21.2838 4.30855C20.9054 4.68773 20.9054 5.31227 21.2838 5.69145L22.5524 6.96283L23.7765 8.18959L24.8003 9.21561C25.1786 9.5948 25.8018 9.5948 26.1802 9.21561L29.719 5.66915C30.0973 5.33457 30.0973 4.71004 29.6967 4.30855Z" fill="white"/>
<path d="M30.4735 10.3375L28.9161 8.75542C28.7398 8.57632 28.4753 8.57632 28.299 8.75542L27.8582 9.20318L27.3293 9.7405L26.7416 10.3375C26.5653 10.5166 26.5653 10.7853 26.7416 10.9644L27.2999 11.5315L27.8288 12.0689L28.2696 12.5166C28.4459 12.6957 28.7104 12.6957 28.8867 12.5166L30.4441 10.9345C30.6498 10.7853 30.6498 10.5166 30.4735 10.3375Z" fill="white"/>
</g>
<defs>
<clipPath id="clip0_4508_216">
<rect width="32" height="37" fill="white" transform="translate(0 0.5)"/>
</clipPath>
</defs>
</svg>
