<svg width="40" height="40" viewBox="0 0 40 40" fill="none" xmlns="http://www.w3.org/2000/svg">
<path d="M38.6969 16.915L23.0492 1.26725C21.3595 -0.422416 18.6046 -0.422416 16.8783 1.26725L12.3602 5.82199L6.92394 11.295L1.26725 16.915C-0.422416 18.6046 -0.422416 21.3595 1.26725 23.0859L6.92394 28.7426L12.3602 34.1789L16.915 38.7337C18.6046 40.4233 21.3595 40.4233 23.0859 38.7337L38.7337 23.0859C40.4233 21.3963 40.4233 18.6414 38.6969 16.915ZM29.3303 21.5432L21.5065 29.3671C20.6616 30.2119 19.2658 30.2119 18.421 29.3671L17.7965 28.7426L12.3602 23.3063L10.6339 21.5432C9.78902 20.6984 9.78902 19.3026 10.6339 18.4577L12.3602 16.7313L17.7965 11.295L18.421 10.6706C19.2658 9.82575 20.6616 9.82575 21.5065 10.6706L29.3303 18.4945C30.1752 19.3393 30.2119 20.6984 29.3303 21.5432Z" fill="#F8F8F8"/>
<path d="M26.9428 18.8657L21.1392 13.0621C20.5147 12.4376 19.4862 12.4376 18.8618 13.0621L17.1721 14.7517L15.1519 16.772L13.0582 18.8657C12.4337 19.4901 12.4337 20.5186 13.0582 21.1431L15.1519 23.2368L17.1721 25.257L18.8618 26.9467C19.4862 27.5711 20.5147 27.5711 21.1392 26.9467L26.9795 21.1063C27.604 20.5186 27.604 19.4901 26.9428 18.8657Z" fill="#CECECE"/>
</svg>
