<svg xmlns="http://www.w3.org/2000/svg" version="1.1" xmlns:xlink="http://www.w3.org/1999/xlink" xmlns:svgjs="http://svgjs.dev/svgjs" width="686.04" height="723.75"><svg id="SvgjsSvg1005" data-name="Layer 1" xmlns="http://www.w3.org/2000/svg" viewBox="0 0 686.04 723.75">
  <path d="m626.03,151.74L395.11,26.42c-32.23-17.49-71.94-17.49-104.18,0L60.01,151.74C27.78,169.24,7.92,201.56,7.92,236.55v250.65c0,34.99,19.86,67.31,52.09,84.81l230.92,125.33c32.23,17.49,71.94,17.49,104.18,0l230.92-125.33c32.23-17.49,52.09-49.82,52.09-84.81v-250.65c0-34.98-19.86-67.31-52.09-84.81Zm-114.45,315.88l-152.79,82.92c-9.76,5.3-21.79,5.3-31.55,0l-151.5-82.22c-8.93-4.85-14.43-13.8-14.43-23.49v-164.95c0-10.28,5.84-19.79,15.31-24.93l153.15-83.12c8.19-4.45,18.29-4.45,26.48,0l157.38,85.41c6.86,3.72,11.09,10.6,11.09,18.05v170.93c0,8.83-5.01,16.99-13.15,21.4Z"></path>
  <polygon points="448.19 304.79 448.19 418.95 343.02 476.03 237.85 418.95 237.85 304.79 343.02 247.72 448.19 304.79"></polygon>
</svg><style>@media (prefers-color-scheme: light) { :root { filter: none; } }
@media (prefers-color-scheme: dark) { :root { filter: none; } }
</style></svg>